<svg role="img" width="17" height="17" viewBox="0 0 17 17" fill="none" xmlns="http://www.w3.org/2000/svg">
<path d="M15.2823 4.68169C14.5669 3.42523 13.5966 2.43049 12.371 1.69724C11.1452 0.96396 9.80696 0.597412 8.3554 0.597412C6.90402 0.597412 5.56538 0.964072 4.33984 1.69724C3.11411 2.43045 2.14378 3.42523 1.4284 4.68169C0.713123 5.93811 0.355469 7.31013 0.355469 8.79771C0.355469 10.5846 0.864058 12.1915 1.88149 13.6187C2.89882 15.046 4.21305 16.0336 5.82409 16.5817C6.01161 16.6174 6.15044 16.5923 6.2407 16.507C6.331 16.4217 6.37609 16.3148 6.37609 16.1868C6.37609 16.1655 6.3743 15.9734 6.37084 15.6102C6.36726 15.2471 6.36558 14.9304 6.36558 14.6601L6.12599 14.7026C5.97323 14.7313 5.78052 14.7434 5.54786 14.74C5.31531 14.7366 5.0739 14.7117 4.82394 14.6652C4.57388 14.6192 4.34129 14.5124 4.126 14.3451C3.91082 14.1778 3.75806 13.9589 3.66776 13.6885L3.5636 13.4428C3.49417 13.2792 3.38486 13.0975 3.23553 12.8983C3.0862 12.699 2.93519 12.5638 2.78243 12.4926L2.7095 12.4391C2.66091 12.4035 2.61581 12.3606 2.57411 12.3109C2.53244 12.2611 2.50125 12.2113 2.48042 12.1614C2.45955 12.1115 2.47684 12.0705 2.53248 12.0384C2.58812 12.0063 2.68867 11.9907 2.83457 11.9907L3.04282 12.0226C3.18172 12.0511 3.35352 12.1363 3.55845 12.2788C3.76328 12.4211 3.93165 12.6062 4.06361 12.8339C4.22341 13.1258 4.41594 13.3482 4.64174 13.5013C4.86736 13.6544 5.09484 13.7308 5.32396 13.7308C5.55308 13.7308 5.75097 13.713 5.9177 13.6776C6.08425 13.642 6.24052 13.5885 6.38642 13.5173C6.44891 13.0402 6.61908 12.6736 6.89676 12.4174C6.50098 12.3748 6.14515 12.3106 5.82908 12.2252C5.5132 12.1397 5.18678 12.0009 4.85003 11.8086C4.5131 11.6164 4.23359 11.3779 4.01144 11.0933C3.78925 10.8085 3.6069 10.4347 3.46465 9.97208C3.32233 9.5093 3.25115 8.97547 3.25115 8.37043C3.25115 7.50894 3.52551 6.77585 4.07412 6.17073C3.81713 5.52305 3.84139 4.79699 4.14698 3.99261C4.34837 3.92847 4.64703 3.9766 5.04281 4.13671C5.43867 4.29689 5.7285 4.4341 5.9126 4.54787C6.0967 4.6616 6.2442 4.75798 6.35533 4.83614C7.00128 4.65113 7.66789 4.55861 8.35532 4.55861C9.04276 4.55861 9.70951 4.65113 10.3555 4.83614L10.7513 4.58C11.022 4.40908 11.3416 4.25246 11.7095 4.11008C12.0775 3.96778 12.359 3.92858 12.5535 3.99272C12.8659 4.79714 12.8937 5.52316 12.6366 6.17084C13.1852 6.77596 13.4597 7.50924 13.4597 8.37054C13.4597 8.97558 13.3882 9.5111 13.2461 9.97743C13.1039 10.4438 12.9199 10.8173 12.6943 11.0986C12.4684 11.3799 12.1871 11.6166 11.8504 11.8087C11.5136 12.0009 11.187 12.1397 10.8712 12.2251C10.5551 12.3106 10.1993 12.3749 9.80353 12.4176C10.1645 12.7378 10.345 13.2433 10.345 13.9337V16.1865C10.345 16.3145 10.3884 16.4214 10.4753 16.5067C10.5621 16.592 10.6992 16.6171 10.8867 16.5813C12.498 16.0333 13.8122 15.0457 14.8295 13.6184C15.8467 12.1912 16.3555 10.5843 16.3555 8.79741C16.3551 7.31002 15.9973 5.93811 15.2823 4.68169Z" fill="white"/>
</svg>
