<svg role="img" width="17" height="17" viewBox="0 0 17 17" fill="none" xmlns="http://www.w3.org/2000/svg">
<path fill-rule="evenodd" clip-rule="evenodd" d="M8.35547 16.6426C12.7737 16.6426 16.3555 13.0609 16.3555 8.64258C16.3555 4.2243 12.7737 0.642578 8.35547 0.642578C3.93719 0.642578 0.355469 4.2243 0.355469 8.64258C0.355469 13.0609 3.93719 16.6426 8.35547 16.6426ZM5.58057 6.89175H6.98893C7.05143 6.89175 7.10208 6.94242 7.10208 7.0049V11.5294C7.10208 11.5919 7.05143 11.6425 6.98893 11.6425H5.58057C5.51806 11.6425 5.46742 11.5919 5.46742 11.5294V7.0049C5.46742 6.94242 5.51806 6.89175 5.58057 6.89175ZM6.28481 4.64258C5.77237 4.64258 5.35547 5.05902 5.35547 5.5709C5.35547 6.083 5.77237 6.49961 6.28481 6.49961C6.79684 6.49961 7.2134 6.08298 7.2134 5.5709C7.21342 5.05902 6.79684 4.64258 6.28481 4.64258ZM9.33309 7.29883C9.5867 7.02254 10.0048 6.77937 10.5705 6.77937C12.1568 6.77937 12.3707 7.92603 12.3707 9.04771V11.5294C12.3707 11.592 12.32 11.6426 12.2575 11.6426H10.8517C10.7892 11.6426 10.7385 11.592 10.7385 11.5294V9.32968C10.7385 8.71378 10.693 8.24266 10.1204 8.24266C9.59451 8.24266 9.38962 8.53653 9.38962 9.29087V11.5294C9.38962 11.5919 9.33897 11.6426 9.27646 11.6426H7.87118C7.80868 11.6426 7.75803 11.5919 7.75803 11.5294V7.00498C7.75803 6.94249 7.80868 6.89182 7.87118 6.89182H9.21993C9.28244 6.89182 9.33309 6.94249 9.33309 7.00498V7.29883Z" fill="white"/>
</svg>
