<svg role="img" width="17" height="17" viewBox="0 0 17 17" fill="none" xmlns="http://www.w3.org/2000/svg">
<path fill-rule="evenodd" clip-rule="evenodd" d="M8.35547 16.584C12.7737 16.584 16.3555 13.0023 16.3555 8.58398C16.3555 4.16571 12.7737 0.583984 8.35547 0.583984C3.93719 0.583984 0.355469 4.16571 0.355469 8.58398C0.355469 13.0023 3.93719 16.584 8.35547 16.584ZM5.20314 5.74211C5.27647 5.81601 5.31414 5.92462 5.30414 6.03472V9.99392C5.3258 10.1365 5.2858 10.2824 5.1958 10.3866L4.35547 11.5279V11.6787H6.73814V11.5279L5.8978 10.3866C5.80747 10.2828 5.7648 10.1376 5.78214 9.99392V6.56993L7.8738 11.6787H8.11647L9.9128 6.56993V10.6418C9.9128 10.7505 9.9128 10.7714 9.84947 10.8423L9.20314 11.5447V11.6951H12.3405V11.5447L11.7168 10.8591C11.6618 10.812 11.6345 10.7348 11.6458 10.6586V5.62081C11.6345 5.5443 11.6618 5.46704 11.7168 5.42001L12.3555 4.7344V4.58398H10.1445L8.56847 8.98621L6.7758 4.58398H4.45647V4.7344L5.20314 5.74211Z" fill="white"/>
</svg>
