<svg role="img" width="17" height="17" viewBox="0 0 17 17" fill="none" xmlns="http://www.w3.org/2000/svg">
<path fill-rule="evenodd" clip-rule="evenodd" d="M8.35547 16.584C12.7737 16.584 16.3555 13.0023 16.3555 8.58398C16.3555 4.16571 12.7737 0.583984 8.35547 0.583984C3.93719 0.583984 0.355469 4.16571 0.355469 8.58398C0.355469 13.0023 3.93719 16.584 8.35547 16.584ZM12.6718 7.50572C12.6718 10.1744 10.6081 13.252 6.83434 13.252L6.83444 13.2518C5.67563 13.2518 4.59746 12.9175 3.68945 12.3446C3.85005 12.3633 4.01344 12.3726 4.17884 12.3726C5.14024 12.3726 6.02482 12.0499 6.72703 11.5081C5.82906 11.4918 5.07165 10.9079 4.81044 10.1054C4.93544 10.129 5.06406 10.1418 5.19604 10.1418C5.38326 10.1418 5.56466 10.117 5.73704 10.0708C4.79826 9.88574 4.09106 9.06912 4.09106 8.09105C4.09106 8.082 4.09106 8.07374 4.09136 8.06525C4.36773 8.21663 4.68394 8.3076 5.02054 8.31784C4.46974 7.95598 4.10753 7.33742 4.10753 6.63675C4.10753 6.26682 4.20914 5.92012 4.38535 5.62168C5.39728 6.84366 6.90931 7.6473 8.61449 7.73176C8.57929 7.58387 8.56127 7.42975 8.56127 7.27126C8.56127 6.1564 9.48005 5.25195 10.6131 5.25195C11.2032 5.25195 11.7363 5.49748 12.1106 5.89003C12.5781 5.79926 13.017 5.63113 13.4135 5.3998C13.26 5.8713 12.9348 6.26682 12.5112 6.51684C12.9262 6.46802 13.3218 6.35974 13.6895 6.19888C13.4148 6.60385 13.0666 6.9596 12.666 7.24467C12.67 7.33131 12.6718 7.41832 12.6718 7.50572Z" fill="white"/>
</svg>
