<svg role="img" width="17" height="17" viewBox="0 0 17 17" fill="none" xmlns="http://www.w3.org/2000/svg">
<path fill-rule="evenodd" clip-rule="evenodd" d="M16.3555 8.58398C16.3555 13.0023 12.7737 16.584 8.35547 16.584C3.93719 16.584 0.355469 13.0023 0.355469 8.58398C0.355469 4.16571 3.93719 0.583984 8.35547 0.583984C12.7737 0.583984 16.3555 4.16571 16.3555 8.58398ZM13.0164 6.29155C12.9067 5.88358 12.5849 5.56185 12.177 5.452C11.4316 5.24805 8.45006 5.24805 8.45006 5.24805C8.45006 5.24805 5.46855 5.24805 4.72316 5.44415C4.32304 5.55401 3.99346 5.88358 3.88368 6.29155C3.6875 7.03695 3.6875 8.58259 3.6875 8.58259C3.6875 8.58259 3.6875 10.1361 3.88368 10.8736C3.99346 11.2816 4.31519 11.6033 4.72316 11.7132C5.4764 11.9171 8.45006 11.9171 8.45006 11.9171C8.45006 11.9171 11.4316 11.9171 12.177 11.721C12.5849 11.6112 12.9067 11.2894 13.0164 10.8815C13.2126 10.1361 13.2126 8.59044 13.2126 8.59044C13.2126 8.59044 13.2205 7.03695 13.0164 6.29155ZM9.98059 8.58231L7.5013 10.0103V7.1543L9.98059 8.58231Z" fill="white"/>
</svg>
